<svg xmlns="http://www.w3.org/2000/svg" viewBox="0 0 513 342">
  <path fill="#FFF" d="M0 0h513v342H0z"/>
  <path d="M0 0h513v26.3H0zm0 52.6h513v26.3H0zm0 52.6h513v26.3H0zm0 52.6h513v26.3H0zm0 52.6h513v26.3H0zm0 52.6h513v26.3H0zm0 52.6h513V342H0z" fill="#BD3D44"/>
  <path fill="#192F5D" d="M0 0h256.5v184.1H0z"/>
  <path d="M47.8 138.9L43.7 123l-4.1 15.9H24l13.1 9.5-4 15.9 13.2-9.6 13.1 9.6-4-15.9 13.1-9.5zM47.8 84.4L43.7 68.5l-4.1 15.9H24l13.1 9.5-4 15.9 13.2-9.6 13.1 9.6-4-15.9 13.1-9.5zM47.8 29.9l-4.1-15.9-4.1 15.9H24l13.1 9.5-4 15.9 13.2-9.6 13.1 9.6-4-15.9 13.1-9.5zM104.5 138.9l-4.1-15.9-4.1 15.9H80.7l13.1 9.5-4 15.9 13.2-9.6 13.1 9.6-4-15.9 13.1-9.5zM104.5 84.4l-4.1-15.9-4.1 15.9H80.7l13.1 9.5-4 15.9 13.2-9.6 13.1 9.6-4-15.9 13.1-9.5zM104.5 29.9l-4.1-15.9-4.1 15.9H80.7l13 9.5-4 15.9 13.2-9.6 13.1 9.6-4-15.9 13.2-9.5zM161.2 138.9l-4.1-15.9-4.1 15.9h-15.5l13.1 9.5-4 15.9 13.1-9.6 13.2 9.6-4-15.9 13-9.5zM161.2 84.4l-4.1-15.9-4.1 15.9h-15.5l13.1 9.5-4 15.9 13.1-9.6 13.2 9.6-4-15.9 13-9.5zM161.2 29.9l-4.1-15.9-4.1 15.9h-15.5l13.1 9.5-4 15.9 13.1-9.6 13.2 9.6-4-15.9 13-9.5zM217.9 138.9l-4.1-15.9-4.1 15.9h-15.4l13 9.5-4 15.9 13.2-9.6 13.1 9.6-4-15.9 13.1-9.5zM217.9 84.4l-4.1-15.9-4.1 15.9h-15.4l13 9.5-4 15.9 13.2-9.6 13.1 9.6-4-15.9 13.1-9.5zM217.9 29.9l-4.1-15.9-4.1 15.9h-15.4l13 9.5-4 15.9 13.2-9.6 13.1 9.6-4-15.9 13.1-9.5z" fill="#FFF"/>
</svg>